<svg xmlns="http://www.w3.org/2000/svg">
    <symbol id="search" viewBox="0 0 24 24" fill="none">
        <path fill-rule="evenodd" clip-rule="evenodd" d="M2.5 10.5a8 8 0 1 1 16 0 8 8 0 0 1-16 0Zm8-7a7 7 0 1 0 0 14 7 7 0 0 0 0-14Z" fill="currentColor"/>
        <path fill-rule="evenodd" clip-rule="evenodd" d="M15.446 15.446a.5.5 0 0 1 .707 0l5.2 5.2a.5.5 0 0 1-.707.707l-5.2-5.2a.5.5 0 0 1 0-.707Z" fill="currentColor"/>
    </symbol>
    <symbol id="like" viewBox="0 0 25 24" fill="none">
        <path fill-rule="evenodd" clip-rule="evenodd" d="M13.205 4.256a6 6 0 1 1 8.487 8.487l-8.84 8.84a.5.5 0 0 1-.707 0l-8.84-8.84a6.001 6.001 0 1 1 8.487-8.487l.706.707.707-.707Zm4.243-.758a5 5 0 0 0-3.536 1.465l-1.06 1.06a.5.5 0 0 1-.707 0l-1.06-1.06a5.001 5.001 0 1 0-7.073 7.073l8.486 8.487 8.487-8.487a5 5 0 0 0-3.537-8.538Z" fill="currentColor"/>
    </symbol>
    <symbol id="box" viewBox="0 0 24 24" fill="none">
        <path fill-rule="evenodd" clip-rule="evenodd" d="m11.332 1.898-7.998 4h-.001A1.5 1.5 0 0 0 2.5 7.24v9.524a1.5 1.5 0 0 0 .824 1.349l8 4a1.5 1.5 0 0 0 1.342 0l8-4h.002a1.5 1.5 0 0 0 .832-1.343V7.24a1.5 1.5 0 0 0-.832-1.342h-.002l-7.998-4a1.502 1.502 0 0 0-1.335 0Zm-.445-.896a2.5 2.5 0 0 1 2.226 0l8 4A2.5 2.5 0 0 1 22.5 7.24v9.53a2.5 2.5 0 0 1-1.387 2.237l-8 4a2.5 2.5 0 0 1-2.237 0l-8-4A2.5 2.5 0 0 1 1.5 16.758V7.24a2.5 2.5 0 0 1 1.387-2.237l8-4Z" fill="currentColor"/>
        <path fill-rule="evenodd" clip-rule="evenodd" d="M1.873 5.936a.5.5 0 0 1 .671-.223L12 10.44l9.457-4.728a.5.5 0 1 1 .447.894l-9.68 4.84a.5.5 0 0 1-.447 0l-9.68-4.84a.5.5 0 0 1-.224-.67Z" fill="currentColor"/>
        <path fill-rule="evenodd" clip-rule="evenodd" d="M12 10.5a.5.5 0 0 1 .5.5v11.76a.5.5 0 0 1-1 0V11a.5.5 0 0 1 .5-.5ZM6.553 3.276a.5.5 0 0 1 .67-.223l10 5a.5.5 0 1 1-.447.894l-10-5a.5.5 0 0 1-.223-.67Z" fill="currentColor"/>
    </symbol>
    <symbol id="food-basket" viewBox="0 0 25 24" fill="none">
        <path fill-rule="evenodd" clip-rule="evenodd" d="M6 21a2.5 2.5 0 1 1 5 0 2.5 2.5 0 0 1-5 0Zm2.5-1.5a1.5 1.5 0 1 0 0 3 1.5 1.5 0 0 0 0-3ZM18 21a2.5 2.5 0 1 1 5 0 2.5 2.5 0 0 1-5 0Zm2.5-1.5a1.5 1.5 0 1 0 0 3 1.5 1.5 0 0 0 0-3ZM1.5.5a.5.5 0 0 0 0 1h3.58c.758 4.291 1.523 8.564 2.17 12.87a2.5 2.5 0 0 0 2.472 2.13H19.86a2.5 2.5 0 0 0 2.451-2.01l1.44-7.196A1.5 1.5 0 0 0 22.278 5.5H7.66a1.49 1.49 0 0 0-.816.24L5.992.914A.5.5 0 0 0 5.5.5h-4Zm5.666 6.574A.5.5 0 0 1 7.66 6.5h14.62a.5.5 0 0 1 .49.598l-1.44 7.196a1.5 1.5 0 0 1-1.47 1.206H9.722a1.5 1.5 0 0 1-1.484-1.277L7.166 7.074Z" fill="currentColor"/>
    </symbol>
    <symbol id="profile" viewBox="0 0 32 32" fill="none">
        <path class="cls-1" d="M16 17a8 8 0 1 1 8-8 8 8 0 0 1-8 8Zm0-14a6 6 0 1 0 6 6 6 6 0 0 0-6-6ZM23 31H9a5 5 0 0 1-5-5v-4a1 1 0 0 1 .49-.86l5-3a1 1 0 0 1 1 1.72L6 22.57V26a3 3 0 0 0 3 3h14a3 3 0 0 0 3-3v-3.43l-4.51-2.71a1 1 0 1 1 1-1.72l5 3A1 1 0 0 1 28 22v4a5 5 0 0 1-5 5Z" fill="currentColor"/>
    </symbol>
    <symbol id="arrow-bottom" viewBox="0 0 24 24" fill="none">
        <path fill-rule="evenodd" clip-rule="evenodd" d="M5.646 8.646a.5.5 0 0 1 .708 0L12 14.293l5.646-5.647a.5.5 0 0 1 .708.708l-6 6a.5.5 0 0 1-.708 0l-6-6a.5.5 0 0 1 0-.708Z" fill="currentColor"/>
    </symbol>
    <symbol id="footer"  viewBox="0 0 1440 126"  fill="none">
        <g opacity=".5" fill="#fff">
            <path d="M24.52 22.996 10.401 10.338a.684.684 0 0 0-1.003.092c-2.86 3.813-2.083 9.527 1.905 13.103 3.989 3.577 9.752 3.728 13.233.47a.685.685 0 0 0-.018-1.007ZM97.61 109.398l14.118 12.658a.683.683 0 0 0 1.003-.092c2.859-3.812 2.083-9.527-1.905-13.103-3.989-3.576-9.753-3.728-13.233-.47a.685.685 0 0 0 .017 1.007ZM113.539 47.556 98.858 35.557a.684.684 0 0 0-.998.138c-2.682 3.94-1.645 9.612 2.503 13.002 4.148 3.39 9.912 3.278 13.24-.136a.685.685 0 0 0-.064-1.005ZM18.298 89.299l13.355-13.461a.684.684 0 0 0-.042-1.007c-3.663-3.048-9.41-2.56-13.182 1.242-3.773 3.803-4.215 9.552-1.137 13.192a.685.685 0 0 0 1.006.034ZM15.458 58.662c-2.784.295-5.522-3.992-6.115-9.577-.593-5.584 1.183-10.351 3.967-10.647 2.784-.296 5.521 3.992 6.114 9.576.594 5.585-1.182 10.352-3.966 10.648ZM108.286 68.29c2.783-.295 5.521 3.992 6.114 9.577s-1.183 10.352-3.967 10.647c-2.784.296-5.521-3.992-6.114-9.576-.593-5.585 1.183-10.352 3.967-10.647ZM77.928 15.453c1.81 1.302.62 6.053-2.658 10.613-3.277 4.56-7.402 7.202-9.213 5.9-1.81-1.3-.62-6.052 2.657-10.612 3.278-4.56 7.403-7.202 9.214-5.9ZM50.989 92.948c-2.217-.242-3.52-4.963-2.913-10.546.608-5.583 2.898-9.914 5.114-9.672 2.217.241 3.52 4.963 2.913 10.546-.608 5.583-2.898 9.913-5.114 9.672Z"/>
            <path fill-rule="evenodd" clip-rule="evenodd" d="M52.165 45.313a2.879 2.879 0 0 1-.67 4.022c-2.923 2.082-6.856 2.7-10.581 1.49-3.726-1.211-6.544-4.023-7.685-7.424a2.88 2.88 0 0 1 1.821-3.648 2.893 2.893 0 0 1 3.657 1.822c.538 1.605 1.943 3.101 3.988 3.766 2.046.664 4.062.28 5.44-.702a2.893 2.893 0 0 1 4.03.674ZM73.288 80.8a2.88 2.88 0 0 1 .671-4.022c2.923-2.082 6.856-2.7 10.58-1.49 3.726 1.211 6.544 4.023 7.685 7.424a2.879 2.879 0 0 1-1.821 3.648 2.893 2.893 0 0 1-3.656-1.822c-.539-1.605-1.944-3.101-3.99-3.766-2.045-.664-4.061-.28-5.44.702a2.893 2.893 0 0 1-4.029-.674ZM102.136 12.612a2.879 2.879 0 0 1 2.387-3.305c3.543-.567 7.342.627 10.141 3.366 2.8 2.739 4.076 6.51 3.587 10.064a2.88 2.88 0 0 1-3.252 2.46 2.893 2.893 0 0 1-2.466-3.257c.231-1.677-.363-3.642-1.901-5.146s-3.515-2.055-5.186-1.788a2.893 2.893 0 0 1-3.31-2.394ZM57.349 113.026a2.88 2.88 0 0 1-.003 4.078c-2.542 2.532-6.321 3.785-10.194 3.201-3.873-.584-7.113-2.897-8.796-6.065a2.88 2.88 0 0 1 1.2-3.897 2.893 2.893 0 0 1 3.904 1.199c.794 1.495 2.425 2.741 4.552 3.062 2.127.321 4.053-.389 5.252-1.583a2.892 2.892 0 0 1 4.085.005Z"/>
            <path d="M40.362 14.979a2.443 2.443 0 0 1 .668-3.39l11.868-7.96a2.443 2.443 0 0 1 3.39.668l2.348 3.5a2.443 2.443 0 0 1-.669 3.39L46.1 19.146a2.443 2.443 0 0 1-3.39-.668l-2.347-3.5ZM67.179 101.745a2.443 2.443 0 0 1 1.865-2.907l13.963-3.049a2.443 2.443 0 0 1 2.907 1.866l.9 4.117a2.443 2.443 0 0 1-1.866 2.908l-13.963 3.048a2.442 2.442 0 0 1-2.907-1.866l-.9-4.117ZM81.248 62.57a2.443 2.443 0 0 1-3.449-.196l-9.513-10.665a2.443 2.443 0 0 1 .197-3.45l3.145-2.804a2.443 2.443 0 0 1 3.45.196l9.512 10.665a2.443 2.443 0 0 1-.197 3.45l-3.145 2.805ZM14.83 99.779a2.443 2.443 0 0 1 2.82 1.994l2.418 14.086a2.444 2.444 0 0 1-1.994 2.821l-4.154.712a2.442 2.442 0 0 1-2.82-1.994L8.68 103.313a2.443 2.443 0 0 1 1.995-2.821l4.153-.713ZM150.519 22.996l-14.117-12.658a.684.684 0 0 0-1.003.092c-2.859 3.813-2.083 9.527 1.905 13.103 3.989 3.577 9.752 3.728 13.233.47a.685.685 0 0 0-.018-1.007ZM223.61 109.398l14.118 12.658a.683.683 0 0 0 1.003-.092c2.859-3.812 2.083-9.527-1.905-13.103-3.989-3.576-9.753-3.728-13.233-.47a.685.685 0 0 0 .017 1.007ZM239.539 47.556l-14.682-11.999a.683.683 0 0 0-.997.138c-2.682 3.94-1.645 9.612 2.503 13.002 4.148 3.39 9.912 3.278 13.24-.136a.685.685 0 0 0-.064-1.005ZM144.298 89.299l13.355-13.461a.684.684 0 0 0-.042-1.007c-3.663-3.048-9.41-2.56-13.182 1.242-3.773 3.803-4.215 9.552-1.137 13.192a.684.684 0 0 0 1.006.034ZM141.458 58.662c-2.784.295-5.522-3.992-6.115-9.577-.593-5.584 1.183-10.351 3.967-10.647 2.784-.296 5.521 3.992 6.114 9.576.594 5.585-1.182 10.352-3.966 10.648ZM234.286 68.29c2.783-.295 5.521 3.992 6.114 9.577s-1.183 10.352-3.967 10.647c-2.784.296-5.521-3.992-6.114-9.576-.593-5.585 1.183-10.352 3.967-10.647ZM203.928 15.453c1.81 1.302.62 6.053-2.658 10.613-3.277 4.56-7.402 7.202-9.213 5.9-1.81-1.3-.62-6.052 2.658-10.612 3.277-4.56 7.402-7.202 9.213-5.9ZM176.989 92.948c-2.217-.242-3.521-4.963-2.913-10.546.608-5.583 2.898-9.914 5.114-9.672 2.217.241 3.521 4.963 2.913 10.546-.608 5.583-2.898 9.913-5.114 9.672Z"/>
            <path fill-rule="evenodd" clip-rule="evenodd" d="M178.165 45.313a2.88 2.88 0 0 1-.671 4.022c-2.922 2.082-6.855 2.7-10.58 1.49-3.726-1.211-6.544-4.023-7.685-7.424a2.88 2.88 0 0 1 1.821-3.648 2.893 2.893 0 0 1 3.657 1.822c.538 1.605 1.943 3.101 3.988 3.766 2.046.664 4.062.28 5.441-.702a2.893 2.893 0 0 1 4.029.674ZM199.288 80.8a2.88 2.88 0 0 1 .671-4.022c2.923-2.082 6.856-2.7 10.581-1.49 3.725 1.211 6.543 4.023 7.684 7.424a2.88 2.88 0 0 1-1.821 3.648 2.892 2.892 0 0 1-3.656-1.822c-.539-1.605-1.944-3.101-3.989-3.766-2.046-.664-4.062-.28-5.441.702a2.893 2.893 0 0 1-4.029-.674ZM228.136 12.612a2.879 2.879 0 0 1 2.387-3.305c3.543-.567 7.342.627 10.141 3.366 2.8 2.739 4.076 6.51 3.587 10.064a2.88 2.88 0 0 1-3.252 2.46 2.893 2.893 0 0 1-2.466-3.257c.231-1.677-.363-3.642-1.901-5.146s-3.515-2.055-5.186-1.788a2.893 2.893 0 0 1-3.31-2.394ZM183.349 113.026a2.88 2.88 0 0 1-.003 4.078c-2.542 2.532-6.321 3.785-10.194 3.201-3.873-.584-7.113-2.897-8.796-6.065a2.88 2.88 0 0 1 1.199-3.897 2.892 2.892 0 0 1 3.905 1.199c.794 1.495 2.425 2.741 4.552 3.062 2.127.321 4.053-.389 5.252-1.583a2.892 2.892 0 0 1 4.085.005Z"/>
            <path d="M166.362 14.979a2.442 2.442 0 0 1 .668-3.39l11.868-7.96a2.443 2.443 0 0 1 3.39.668l2.347 3.5a2.442 2.442 0 0 1-.668 3.39l-11.868 7.96a2.443 2.443 0 0 1-3.39-.668l-2.347-3.5ZM193.179 101.745a2.442 2.442 0 0 1 1.865-2.907l13.963-3.049a2.442 2.442 0 0 1 2.907 1.866l.899 4.117a2.443 2.443 0 0 1-1.865 2.908l-13.963 3.048a2.441 2.441 0 0 1-2.907-1.866l-.899-4.117ZM207.248 62.57a2.443 2.443 0 0 1-3.449-.196l-9.513-10.665a2.443 2.443 0 0 1 .197-3.45l3.145-2.804a2.443 2.443 0 0 1 3.449.196l9.513 10.665a2.443 2.443 0 0 1-.197 3.45l-3.145 2.805ZM140.829 99.779a2.443 2.443 0 0 1 2.821 1.994l2.418 14.086a2.444 2.444 0 0 1-1.994 2.821l-4.154.712a2.443 2.443 0 0 1-2.821-1.994l-2.418-14.085a2.443 2.443 0 0 1 1.995-2.821l4.153-.713ZM276.519 22.996l-14.117-12.658a.684.684 0 0 0-1.003.092c-2.859 3.813-2.083 9.527 1.905 13.103 3.989 3.577 9.752 3.728 13.233.47a.685.685 0 0 0-.018-1.007ZM349.61 109.398l14.118 12.658a.683.683 0 0 0 1.003-.092c2.859-3.812 2.083-9.527-1.905-13.103-3.989-3.576-9.753-3.728-13.233-.47a.685.685 0 0 0 .017 1.007ZM365.539 47.556l-14.682-11.999a.683.683 0 0 0-.997.138c-2.682 3.94-1.645 9.612 2.503 13.002 4.148 3.39 9.912 3.278 13.24-.136a.685.685 0 0 0-.064-1.005ZM270.298 89.299l13.355-13.461a.684.684 0 0 0-.042-1.007c-3.663-3.048-9.41-2.56-13.182 1.242-3.773 3.803-4.215 9.552-1.137 13.192a.684.684 0 0 0 1.006.034ZM267.458 58.662c-2.784.295-5.522-3.992-6.115-9.577-.593-5.584 1.183-10.351 3.967-10.647 2.784-.296 5.521 3.992 6.114 9.576.594 5.585-1.182 10.352-3.966 10.648ZM360.286 68.29c2.783-.295 5.521 3.992 6.114 9.577s-1.183 10.352-3.967 10.647c-2.784.296-5.521-3.992-6.114-9.576-.593-5.585 1.183-10.352 3.967-10.647ZM329.928 15.453c1.81 1.302.62 6.053-2.658 10.613-3.277 4.56-7.402 7.202-9.213 5.9-1.81-1.3-.62-6.052 2.658-10.612 3.277-4.56 7.402-7.202 9.213-5.9ZM302.989 92.948c-2.217-.242-3.521-4.963-2.913-10.546.608-5.583 2.898-9.914 5.114-9.672 2.217.241 3.521 4.963 2.913 10.546-.608 5.583-2.898 9.913-5.114 9.672Z"/>
            <path fill-rule="evenodd" clip-rule="evenodd" d="M304.165 45.313a2.88 2.88 0 0 1-.671 4.022c-2.922 2.082-6.855 2.7-10.58 1.49-3.726-1.211-6.544-4.023-7.685-7.424a2.88 2.88 0 0 1 1.821-3.648 2.893 2.893 0 0 1 3.657 1.822c.538 1.605 1.943 3.101 3.988 3.766 2.046.664 4.062.28 5.441-.702a2.893 2.893 0 0 1 4.029.674ZM325.288 80.8a2.88 2.88 0 0 1 .671-4.022c2.923-2.082 6.856-2.7 10.581-1.49 3.725 1.211 6.543 4.023 7.684 7.424a2.88 2.88 0 0 1-1.821 3.648 2.892 2.892 0 0 1-3.656-1.822c-.539-1.605-1.944-3.101-3.989-3.766-2.046-.664-4.062-.28-5.441.702a2.893 2.893 0 0 1-4.029-.674ZM354.136 12.612a2.879 2.879 0 0 1 2.387-3.305c3.543-.567 7.342.627 10.141 3.366 2.8 2.739 4.076 6.51 3.587 10.064a2.88 2.88 0 0 1-3.252 2.46 2.893 2.893 0 0 1-2.466-3.257c.231-1.677-.363-3.642-1.901-5.146s-3.515-2.055-5.186-1.788a2.893 2.893 0 0 1-3.31-2.394ZM309.349 113.026a2.88 2.88 0 0 1-.003 4.078c-2.542 2.532-6.321 3.785-10.194 3.201-3.873-.584-7.113-2.897-8.796-6.065a2.88 2.88 0 0 1 1.199-3.897 2.892 2.892 0 0 1 3.905 1.199c.794 1.495 2.425 2.741 4.552 3.062 2.127.321 4.053-.389 5.252-1.583a2.892 2.892 0 0 1 4.085.005Z"/>
            <path d="M292.362 14.979a2.442 2.442 0 0 1 .668-3.39l11.868-7.96a2.443 2.443 0 0 1 3.39.668l2.347 3.5a2.442 2.442 0 0 1-.668 3.39l-11.868 7.96a2.443 2.443 0 0 1-3.39-.668l-2.347-3.5ZM319.179 101.745a2.442 2.442 0 0 1 1.865-2.907l13.963-3.049a2.442 2.442 0 0 1 2.907 1.866l.899 4.117a2.443 2.443 0 0 1-1.865 2.908l-13.963 3.048a2.441 2.441 0 0 1-2.907-1.866l-.899-4.117ZM333.248 62.57a2.443 2.443 0 0 1-3.449-.196l-9.513-10.665a2.443 2.443 0 0 1 .197-3.45l3.145-2.804a2.443 2.443 0 0 1 3.449.196l9.513 10.665a2.443 2.443 0 0 1-.197 3.45l-3.145 2.805ZM266.829 99.779a2.443 2.443 0 0 1 2.821 1.994l2.418 14.086a2.444 2.444 0 0 1-1.994 2.821l-4.154.712a2.443 2.443 0 0 1-2.821-1.994l-2.418-14.085a2.443 2.443 0 0 1 1.995-2.821l4.153-.713ZM402.519 22.996l-14.117-12.658a.684.684 0 0 0-1.003.092c-2.859 3.813-2.083 9.527 1.905 13.103 3.989 3.577 9.752 3.728 13.233.47a.685.685 0 0 0-.018-1.007ZM475.61 109.398l14.118 12.658a.683.683 0 0 0 1.003-.092c2.859-3.812 2.083-9.527-1.905-13.103-3.989-3.576-9.753-3.728-13.233-.47a.685.685 0 0 0 .017 1.007ZM491.539 47.556l-14.682-11.999a.683.683 0 0 0-.997.138c-2.682 3.94-1.645 9.612 2.503 13.002 4.148 3.39 9.912 3.278 13.24-.136a.685.685 0 0 0-.064-1.005ZM396.298 89.299l13.355-13.461a.684.684 0 0 0-.042-1.007c-3.663-3.048-9.41-2.56-13.182 1.242-3.773 3.803-4.215 9.552-1.137 13.192a.684.684 0 0 0 1.006.034ZM393.458 58.662c-2.784.295-5.522-3.992-6.115-9.577-.593-5.584 1.183-10.351 3.967-10.647 2.784-.296 5.521 3.992 6.114 9.576.594 5.585-1.182 10.352-3.966 10.648ZM486.286 68.29c2.783-.295 5.521 3.992 6.114 9.577s-1.183 10.352-3.967 10.647c-2.784.296-5.521-3.992-6.114-9.576-.593-5.585 1.183-10.352 3.967-10.647ZM455.928 15.453c1.81 1.302.62 6.053-2.658 10.613-3.277 4.56-7.402 7.202-9.213 5.9-1.81-1.3-.62-6.052 2.658-10.612 3.277-4.56 7.402-7.202 9.213-5.9ZM428.989 92.948c-2.217-.242-3.521-4.963-2.913-10.546.608-5.583 2.898-9.914 5.114-9.672 2.217.241 3.521 4.963 2.913 10.546-.608 5.583-2.898 9.913-5.114 9.672Z"/>
            <path fill-rule="evenodd" clip-rule="evenodd" d="M430.165 45.313a2.88 2.88 0 0 1-.671 4.022c-2.922 2.082-6.855 2.7-10.58 1.49-3.726-1.211-6.544-4.023-7.685-7.424a2.88 2.88 0 0 1 1.821-3.648 2.893 2.893 0 0 1 3.657 1.822c.538 1.605 1.943 3.101 3.988 3.766 2.046.664 4.062.28 5.441-.702a2.893 2.893 0 0 1 4.029.674ZM451.288 80.8a2.88 2.88 0 0 1 .671-4.022c2.923-2.082 6.856-2.7 10.581-1.49 3.725 1.211 6.543 4.023 7.684 7.424a2.88 2.88 0 0 1-1.821 3.648 2.892 2.892 0 0 1-3.656-1.822c-.539-1.605-1.944-3.101-3.989-3.766-2.046-.664-4.062-.28-5.441.702a2.893 2.893 0 0 1-4.029-.674ZM480.136 12.612a2.879 2.879 0 0 1 2.387-3.305c3.543-.567 7.342.627 10.141 3.366 2.8 2.739 4.076 6.51 3.587 10.064a2.88 2.88 0 0 1-3.252 2.46 2.893 2.893 0 0 1-2.466-3.257c.231-1.677-.363-3.642-1.901-5.146s-3.515-2.055-5.186-1.788a2.893 2.893 0 0 1-3.31-2.394ZM435.349 113.026a2.88 2.88 0 0 1-.003 4.078c-2.542 2.532-6.321 3.785-10.194 3.201-3.873-.584-7.113-2.897-8.796-6.065a2.88 2.88 0 0 1 1.199-3.897 2.892 2.892 0 0 1 3.905 1.199c.794 1.495 2.425 2.741 4.552 3.062 2.127.321 4.053-.389 5.252-1.583a2.892 2.892 0 0 1 4.085.005Z"/>
            <path d="M418.362 14.979a2.442 2.442 0 0 1 .668-3.39l11.868-7.96a2.443 2.443 0 0 1 3.39.668l2.347 3.5a2.442 2.442 0 0 1-.668 3.39l-11.868 7.96a2.443 2.443 0 0 1-3.39-.668l-2.347-3.5ZM445.179 101.745a2.442 2.442 0 0 1 1.865-2.907l13.963-3.049a2.442 2.442 0 0 1 2.907 1.866l.899 4.117a2.443 2.443 0 0 1-1.865 2.908l-13.963 3.048a2.441 2.441 0 0 1-2.907-1.866l-.899-4.117ZM459.248 62.57a2.443 2.443 0 0 1-3.449-.196l-9.513-10.665a2.443 2.443 0 0 1 .197-3.45l3.145-2.804a2.443 2.443 0 0 1 3.449.196l9.513 10.665a2.443 2.443 0 0 1-.197 3.45l-3.145 2.805ZM392.829 99.779a2.443 2.443 0 0 1 2.821 1.994l2.418 14.086a2.444 2.444 0 0 1-1.994 2.821l-4.154.712a2.443 2.443 0 0 1-2.821-1.994l-2.418-14.085a2.443 2.443 0 0 1 1.995-2.821l4.153-.713ZM528.519 22.996l-14.117-12.658a.684.684 0 0 0-1.003.092c-2.859 3.813-2.083 9.527 1.905 13.103 3.989 3.577 9.752 3.728 13.233.47a.685.685 0 0 0-.018-1.007ZM601.61 109.398l14.118 12.658a.683.683 0 0 0 1.003-.092c2.859-3.812 2.083-9.527-1.905-13.103-3.989-3.576-9.753-3.728-13.233-.47a.685.685 0 0 0 .017 1.007ZM617.539 47.556l-14.682-11.999a.683.683 0 0 0-.997.138c-2.682 3.94-1.645 9.612 2.503 13.002 4.148 3.39 9.912 3.278 13.24-.136a.685.685 0 0 0-.064-1.005ZM522.298 89.299l13.355-13.461a.684.684 0 0 0-.042-1.007c-3.663-3.048-9.41-2.56-13.182 1.242-3.773 3.803-4.215 9.552-1.137 13.192a.684.684 0 0 0 1.006.034ZM519.458 58.662c-2.784.295-5.522-3.992-6.115-9.577-.593-5.584 1.183-10.351 3.967-10.647 2.784-.296 5.521 3.992 6.114 9.576.594 5.585-1.182 10.352-3.966 10.648ZM612.286 68.29c2.783-.295 5.521 3.992 6.114 9.577s-1.183 10.352-3.967 10.647c-2.784.296-5.521-3.992-6.114-9.576-.593-5.585 1.183-10.352 3.967-10.647ZM581.928 15.453c1.81 1.302.62 6.053-2.658 10.613-3.277 4.56-7.402 7.202-9.213 5.9-1.81-1.3-.62-6.052 2.658-10.612 3.277-4.56 7.402-7.202 9.213-5.9ZM554.989 92.948c-2.217-.242-3.521-4.963-2.913-10.546.608-5.583 2.898-9.914 5.114-9.672 2.217.241 3.521 4.963 2.913 10.546-.608 5.583-2.898 9.913-5.114 9.672Z"/>
            <path fill-rule="evenodd" clip-rule="evenodd" d="M556.165 45.313a2.88 2.88 0 0 1-.671 4.022c-2.922 2.082-6.855 2.7-10.58 1.49-3.726-1.211-6.544-4.023-7.685-7.424a2.88 2.88 0 0 1 1.821-3.648 2.893 2.893 0 0 1 3.657 1.822c.538 1.605 1.943 3.101 3.988 3.766 2.046.664 4.062.28 5.441-.702a2.893 2.893 0 0 1 4.029.674ZM577.288 80.8a2.88 2.88 0 0 1 .671-4.022c2.923-2.082 6.856-2.7 10.581-1.49 3.725 1.211 6.543 4.023 7.684 7.424a2.88 2.88 0 0 1-1.821 3.648 2.892 2.892 0 0 1-3.656-1.822c-.539-1.605-1.944-3.101-3.989-3.766-2.046-.664-4.062-.28-5.441.702a2.893 2.893 0 0 1-4.029-.674ZM606.136 12.612a2.879 2.879 0 0 1 2.387-3.305c3.543-.567 7.342.627 10.141 3.366 2.8 2.739 4.076 6.51 3.587 10.064a2.88 2.88 0 0 1-3.252 2.46 2.893 2.893 0 0 1-2.466-3.257c.231-1.677-.363-3.642-1.901-5.146s-3.515-2.055-5.186-1.788a2.893 2.893 0 0 1-3.31-2.394ZM561.349 113.026a2.88 2.88 0 0 1-.003 4.078c-2.542 2.532-6.321 3.785-10.194 3.201-3.873-.584-7.113-2.897-8.796-6.065a2.88 2.88 0 0 1 1.199-3.897 2.892 2.892 0 0 1 3.905 1.199c.794 1.495 2.425 2.741 4.552 3.062 2.127.321 4.053-.389 5.252-1.583a2.892 2.892 0 0 1 4.085.005Z"/>
            <path d="M544.362 14.979a2.442 2.442 0 0 1 .668-3.39l11.868-7.96a2.443 2.443 0 0 1 3.39.668l2.347 3.5a2.442 2.442 0 0 1-.668 3.39l-11.868 7.96a2.443 2.443 0 0 1-3.39-.668l-2.347-3.5ZM571.179 101.745a2.442 2.442 0 0 1 1.865-2.907l13.963-3.049a2.442 2.442 0 0 1 2.907 1.866l.899 4.117a2.443 2.443 0 0 1-1.865 2.908l-13.963 3.048a2.441 2.441 0 0 1-2.907-1.866l-.899-4.117ZM585.248 62.57a2.443 2.443 0 0 1-3.449-.196l-9.513-10.665a2.443 2.443 0 0 1 .197-3.45l3.145-2.804a2.443 2.443 0 0 1 3.449.196l9.513 10.665a2.443 2.443 0 0 1-.197 3.45l-3.145 2.805ZM518.829 99.779a2.443 2.443 0 0 1 2.821 1.994l2.418 14.086a2.444 2.444 0 0 1-1.994 2.821l-4.154.712a2.443 2.443 0 0 1-2.821-1.994l-2.418-14.085a2.443 2.443 0 0 1 1.995-2.821l4.153-.713ZM654.519 22.996l-14.117-12.658a.684.684 0 0 0-1.003.092c-2.859 3.813-2.083 9.527 1.905 13.103 3.989 3.577 9.752 3.728 13.233.47a.685.685 0 0 0-.018-1.007ZM727.61 109.398l14.118 12.658a.683.683 0 0 0 1.003-.092c2.859-3.812 2.083-9.527-1.905-13.103-3.989-3.576-9.753-3.728-13.233-.47a.685.685 0 0 0 .017 1.007ZM743.539 47.556l-14.682-11.999a.683.683 0 0 0-.997.138c-2.682 3.94-1.645 9.612 2.503 13.002 4.148 3.39 9.912 3.278 13.24-.136a.685.685 0 0 0-.064-1.005ZM648.298 89.299l13.355-13.461a.684.684 0 0 0-.042-1.007c-3.663-3.048-9.41-2.56-13.182 1.242-3.773 3.803-4.215 9.552-1.137 13.192a.684.684 0 0 0 1.006.034ZM645.458 58.662c-2.784.295-5.522-3.992-6.115-9.577-.593-5.584 1.183-10.351 3.967-10.647 2.784-.296 5.521 3.992 6.114 9.576.594 5.585-1.182 10.352-3.966 10.648ZM738.286 68.29c2.783-.295 5.521 3.992 6.114 9.577s-1.183 10.352-3.967 10.647c-2.784.296-5.521-3.992-6.114-9.576-.593-5.585 1.183-10.352 3.967-10.647ZM707.928 15.453c1.81 1.302.62 6.053-2.658 10.613-3.277 4.56-7.402 7.202-9.213 5.9-1.81-1.3-.62-6.052 2.658-10.612 3.277-4.56 7.402-7.202 9.213-5.9ZM680.989 92.948c-2.217-.242-3.521-4.963-2.913-10.546.608-5.583 2.898-9.914 5.114-9.672 2.217.241 3.521 4.963 2.913 10.546-.608 5.583-2.898 9.913-5.114 9.672Z"/>
            <path fill-rule="evenodd" clip-rule="evenodd" d="M682.165 45.313a2.88 2.88 0 0 1-.671 4.022c-2.922 2.082-6.855 2.7-10.58 1.49-3.726-1.211-6.544-4.023-7.685-7.424a2.88 2.88 0 0 1 1.821-3.648 2.893 2.893 0 0 1 3.657 1.822c.538 1.605 1.943 3.101 3.988 3.766 2.046.664 4.062.28 5.441-.702a2.893 2.893 0 0 1 4.029.674ZM703.288 80.8a2.88 2.88 0 0 1 .671-4.022c2.923-2.082 6.856-2.7 10.581-1.49 3.725 1.211 6.543 4.023 7.684 7.424a2.88 2.88 0 0 1-1.821 3.648 2.892 2.892 0 0 1-3.656-1.822c-.539-1.605-1.944-3.101-3.989-3.766-2.046-.664-4.062-.28-5.441.702a2.893 2.893 0 0 1-4.029-.674ZM732.136 12.612a2.879 2.879 0 0 1 2.387-3.305c3.543-.567 7.342.627 10.141 3.366 2.8 2.739 4.076 6.51 3.587 10.064a2.88 2.88 0 0 1-3.252 2.46 2.893 2.893 0 0 1-2.466-3.257c.231-1.677-.363-3.642-1.901-5.146s-3.515-2.055-5.186-1.788a2.893 2.893 0 0 1-3.31-2.394ZM687.349 113.026a2.88 2.88 0 0 1-.003 4.078c-2.542 2.532-6.321 3.785-10.194 3.201-3.873-.584-7.113-2.897-8.796-6.065a2.88 2.88 0 0 1 1.199-3.897 2.892 2.892 0 0 1 3.905 1.199c.794 1.495 2.425 2.741 4.552 3.062 2.127.321 4.053-.389 5.252-1.583a2.892 2.892 0 0 1 4.085.005Z"/>
            <path d="M670.362 14.979a2.442 2.442 0 0 1 .668-3.39l11.868-7.96a2.443 2.443 0 0 1 3.39.668l2.347 3.5a2.442 2.442 0 0 1-.668 3.39l-11.868 7.96a2.443 2.443 0 0 1-3.39-.668l-2.347-3.5ZM697.179 101.745a2.442 2.442 0 0 1 1.865-2.907l13.963-3.049a2.442 2.442 0 0 1 2.907 1.866l.899 4.117a2.443 2.443 0 0 1-1.865 2.908l-13.963 3.048a2.441 2.441 0 0 1-2.907-1.866l-.899-4.117ZM711.248 62.57a2.443 2.443 0 0 1-3.449-.196l-9.513-10.665a2.443 2.443 0 0 1 .197-3.45l3.145-2.804a2.443 2.443 0 0 1 3.449.196l9.513 10.665a2.443 2.443 0 0 1-.197 3.45l-3.145 2.805ZM644.829 99.779a2.443 2.443 0 0 1 2.821 1.994l2.418 14.086a2.444 2.444 0 0 1-1.994 2.821l-4.154.712a2.443 2.443 0 0 1-2.821-1.994l-2.418-14.085a2.443 2.443 0 0 1 1.995-2.821l4.153-.713ZM780.519 22.996l-14.117-12.658a.684.684 0 0 0-1.003.092c-2.859 3.813-2.083 9.527 1.905 13.103 3.989 3.577 9.752 3.728 13.233.47a.685.685 0 0 0-.018-1.007ZM853.61 109.398l14.118 12.658a.683.683 0 0 0 1.003-.092c2.859-3.812 2.083-9.527-1.905-13.103-3.989-3.576-9.753-3.728-13.233-.47a.685.685 0 0 0 .017 1.007ZM869.539 47.556l-14.682-11.999a.683.683 0 0 0-.997.138c-2.682 3.94-1.645 9.612 2.503 13.002 4.148 3.39 9.912 3.278 13.24-.136a.685.685 0 0 0-.064-1.005ZM774.298 89.299l13.355-13.461a.684.684 0 0 0-.042-1.007c-3.663-3.048-9.41-2.56-13.182 1.242-3.773 3.803-4.215 9.552-1.137 13.192a.684.684 0 0 0 1.006.034ZM771.458 58.662c-2.784.295-5.522-3.992-6.115-9.577-.593-5.584 1.183-10.351 3.967-10.647 2.784-.296 5.521 3.992 6.114 9.576.594 5.585-1.182 10.352-3.966 10.648ZM864.286 68.29c2.783-.295 5.521 3.992 6.114 9.577s-1.183 10.352-3.967 10.647c-2.784.296-5.521-3.992-6.114-9.576-.593-5.585 1.183-10.352 3.967-10.647ZM833.928 15.453c1.81 1.302.62 6.053-2.658 10.613-3.277 4.56-7.402 7.202-9.213 5.9-1.81-1.3-.62-6.052 2.658-10.612 3.277-4.56 7.402-7.202 9.213-5.9ZM806.989 92.948c-2.217-.242-3.521-4.963-2.913-10.546.608-5.583 2.898-9.914 5.114-9.672 2.217.241 3.521 4.963 2.913 10.546-.608 5.583-2.898 9.913-5.114 9.672Z"/>
            <path fill-rule="evenodd" clip-rule="evenodd" d="M808.165 45.313a2.88 2.88 0 0 1-.671 4.022c-2.922 2.082-6.855 2.7-10.58 1.49-3.726-1.211-6.544-4.023-7.685-7.424a2.88 2.88 0 0 1 1.821-3.648 2.893 2.893 0 0 1 3.657 1.822c.538 1.605 1.943 3.101 3.988 3.766 2.046.664 4.062.28 5.441-.702a2.893 2.893 0 0 1 4.029.674ZM829.288 80.8a2.88 2.88 0 0 1 .671-4.022c2.923-2.082 6.856-2.7 10.581-1.49 3.725 1.211 6.543 4.023 7.684 7.424a2.88 2.88 0 0 1-1.821 3.648 2.892 2.892 0 0 1-3.656-1.822c-.539-1.605-1.944-3.101-3.989-3.766-2.046-.664-4.062-.28-5.441.702a2.893 2.893 0 0 1-4.029-.674ZM858.136 12.612a2.879 2.879 0 0 1 2.387-3.305c3.543-.567 7.342.627 10.141 3.366 2.8 2.739 4.076 6.51 3.587 10.064a2.88 2.88 0 0 1-3.252 2.46 2.893 2.893 0 0 1-2.466-3.257c.231-1.677-.363-3.642-1.901-5.146s-3.515-2.055-5.186-1.788a2.893 2.893 0 0 1-3.31-2.394ZM813.349 113.026a2.88 2.88 0 0 1-.003 4.078c-2.542 2.532-6.321 3.785-10.194 3.201-3.873-.584-7.113-2.897-8.796-6.065a2.88 2.88 0 0 1 1.199-3.897 2.892 2.892 0 0 1 3.905 1.199c.794 1.495 2.425 2.741 4.552 3.062 2.127.321 4.053-.389 5.252-1.583a2.892 2.892 0 0 1 4.085.005Z"/>
            <path d="M796.362 14.979a2.442 2.442 0 0 1 .668-3.39l11.868-7.96a2.443 2.443 0 0 1 3.39.668l2.347 3.5a2.442 2.442 0 0 1-.668 3.39l-11.868 7.96a2.443 2.443 0 0 1-3.39-.668l-2.347-3.5ZM823.179 101.745a2.442 2.442 0 0 1 1.865-2.907l13.963-3.049a2.442 2.442 0 0 1 2.907 1.866l.899 4.117a2.443 2.443 0 0 1-1.865 2.908l-13.963 3.048a2.441 2.441 0 0 1-2.907-1.866l-.899-4.117ZM837.248 62.57a2.443 2.443 0 0 1-3.449-.196l-9.513-10.665a2.443 2.443 0 0 1 .197-3.45l3.145-2.804a2.443 2.443 0 0 1 3.449.196l9.513 10.665a2.443 2.443 0 0 1-.197 3.45l-3.145 2.805ZM770.829 99.779a2.443 2.443 0 0 1 2.821 1.994l2.418 14.086a2.444 2.444 0 0 1-1.994 2.821l-4.154.712a2.443 2.443 0 0 1-2.821-1.994l-2.418-14.085a2.443 2.443 0 0 1 1.995-2.821l4.153-.713ZM906.519 22.996l-14.117-12.658a.684.684 0 0 0-1.003.092c-2.859 3.813-2.083 9.527 1.905 13.103 3.989 3.577 9.752 3.728 13.233.47a.685.685 0 0 0-.018-1.007ZM979.61 109.398l14.118 12.658a.683.683 0 0 0 1.003-.092c2.859-3.812 2.083-9.527-1.905-13.103-3.989-3.576-9.753-3.728-13.233-.47a.685.685 0 0 0 .017 1.007ZM995.539 47.556l-14.682-11.999a.683.683 0 0 0-.997.138c-2.682 3.94-1.645 9.612 2.503 13.002 4.148 3.39 9.912 3.278 13.24-.136a.685.685 0 0 0-.064-1.005ZM900.298 89.299l13.355-13.461a.684.684 0 0 0-.042-1.007c-3.663-3.048-9.41-2.56-13.182 1.242-3.773 3.803-4.215 9.552-1.137 13.192a.684.684 0 0 0 1.006.034ZM897.458 58.662c-2.784.295-5.522-3.992-6.115-9.577-.593-5.584 1.183-10.351 3.967-10.647 2.784-.296 5.521 3.992 6.114 9.576.594 5.585-1.182 10.352-3.966 10.648ZM990.286 68.29c2.783-.295 5.521 3.992 6.114 9.577s-1.183 10.352-3.967 10.647c-2.784.296-5.521-3.992-6.114-9.576-.593-5.585 1.183-10.352 3.967-10.647ZM959.928 15.453c1.81 1.302.62 6.053-2.658 10.613-3.277 4.56-7.402 7.202-9.213 5.9-1.81-1.3-.62-6.052 2.658-10.612 3.277-4.56 7.402-7.202 9.213-5.9ZM932.989 92.948c-2.217-.242-3.521-4.963-2.913-10.546.608-5.583 2.898-9.914 5.114-9.672 2.217.241 3.521 4.963 2.913 10.546-.608 5.583-2.898 9.913-5.114 9.672Z"/>
            <path fill-rule="evenodd" clip-rule="evenodd" d="M934.165 45.313a2.88 2.88 0 0 1-.671 4.022c-2.922 2.082-6.855 2.7-10.58 1.49-3.726-1.211-6.544-4.023-7.685-7.424a2.88 2.88 0 0 1 1.821-3.648 2.893 2.893 0 0 1 3.657 1.822c.538 1.605 1.943 3.101 3.988 3.766 2.046.664 4.062.28 5.441-.702a2.893 2.893 0 0 1 4.029.674ZM955.288 80.8a2.88 2.88 0 0 1 .671-4.022c2.923-2.082 6.856-2.7 10.581-1.49 3.725 1.211 6.543 4.023 7.684 7.424a2.88 2.88 0 0 1-1.821 3.648 2.892 2.892 0 0 1-3.656-1.822c-.539-1.605-1.944-3.101-3.989-3.766-2.046-.664-4.062-.28-5.441.702a2.893 2.893 0 0 1-4.029-.674ZM984.136 12.612a2.879 2.879 0 0 1 2.387-3.305c3.543-.567 7.342.627 10.141 3.366 2.8 2.739 4.076 6.51 3.586 10.064a2.88 2.88 0 0 1-3.251 2.46 2.893 2.893 0 0 1-2.466-3.257c.231-1.677-.363-3.642-1.901-5.146s-3.515-2.055-5.186-1.788a2.893 2.893 0 0 1-3.31-2.394ZM939.349 113.026a2.88 2.88 0 0 1-.003 4.078c-2.542 2.532-6.321 3.785-10.194 3.201-3.873-.584-7.113-2.897-8.796-6.065a2.88 2.88 0 0 1 1.199-3.897 2.892 2.892 0 0 1 3.905 1.199c.794 1.495 2.425 2.741 4.552 3.062 2.127.321 4.053-.389 5.252-1.583a2.892 2.892 0 0 1 4.085.005Z"/>
            <path d="M922.362 14.979a2.442 2.442 0 0 1 .668-3.39l11.868-7.96a2.443 2.443 0 0 1 3.39.668l2.347 3.5a2.442 2.442 0 0 1-.668 3.39l-11.868 7.96a2.443 2.443 0 0 1-3.39-.668l-2.347-3.5ZM949.179 101.745a2.442 2.442 0 0 1 1.865-2.907l13.963-3.049a2.442 2.442 0 0 1 2.907 1.866l.899 4.117a2.443 2.443 0 0 1-1.865 2.908l-13.963 3.048a2.441 2.441 0 0 1-2.907-1.866l-.899-4.117ZM963.248 62.57a2.443 2.443 0 0 1-3.449-.196l-9.513-10.665a2.443 2.443 0 0 1 .197-3.45l3.145-2.804a2.443 2.443 0 0 1 3.449.196l9.513 10.665a2.443 2.443 0 0 1-.197 3.45l-3.145 2.805ZM896.829 99.779a2.443 2.443 0 0 1 2.821 1.994l2.418 14.086a2.444 2.444 0 0 1-1.994 2.821l-4.154.712a2.443 2.443 0 0 1-2.821-1.994l-2.418-14.085a2.443 2.443 0 0 1 1.995-2.821l4.153-.713ZM1032.52 22.996l-14.12-12.658a.681.681 0 0 0-1 .092c-2.86 3.813-2.08 9.527 1.9 13.103 3.99 3.577 9.76 3.728 13.24.47a.684.684 0 0 0-.02-1.007ZM1105.61 109.398l14.12 12.658a.68.68 0 0 0 1-.092c2.86-3.812 2.08-9.527-1.9-13.103-3.99-3.576-9.76-3.728-13.24-.47a.684.684 0 0 0 .02 1.007ZM1121.54 47.556l-14.68-11.999c-.31-.251-.78-.195-1 .138-2.68 3.94-1.65 9.612 2.5 13.002 4.15 3.39 9.92 3.278 13.24-.136a.683.683 0 0 0-.06-1.005ZM1026.3 89.299l13.35-13.461a.683.683 0 0 0-.04-1.007c-3.66-3.048-9.41-2.56-13.18 1.242-3.77 3.803-4.22 9.552-1.14 13.192.26.306.73.316 1.01.034ZM1023.46 58.662c-2.79.295-5.52-3.992-6.12-9.577-.59-5.584 1.19-10.351 3.97-10.647 2.78-.296 5.52 3.992 6.11 9.576.6 5.585-1.18 10.352-3.96 10.648ZM1116.29 68.29c2.78-.295 5.52 3.992 6.11 9.577.59 5.585-1.18 10.352-3.97 10.647-2.78.296-5.52-3.992-6.11-9.576-.59-5.585 1.18-10.352 3.97-10.647ZM1085.93 15.453c1.81 1.302.62 6.053-2.66 10.613-3.28 4.56-7.4 7.202-9.21 5.9-1.81-1.3-.62-6.052 2.65-10.612 3.28-4.56 7.41-7.202 9.22-5.9ZM1058.99 92.948c-2.22-.242-3.52-4.963-2.91-10.546.6-5.583 2.89-9.914 5.11-9.672 2.22.241 3.52 4.963 2.91 10.546-.61 5.583-2.89 9.913-5.11 9.672Z"/>
            <path fill-rule="evenodd" clip-rule="evenodd" d="M1060.16 45.313a2.875 2.875 0 0 1-.67 4.022c-2.92 2.082-6.85 2.7-10.58 1.49-3.72-1.211-6.54-4.023-7.68-7.424a2.878 2.878 0 0 1 1.82-3.648 2.9 2.9 0 0 1 3.66 1.822c.53 1.605 1.94 3.101 3.99 3.766 2.04.664 4.06.28 5.44-.702a2.882 2.882 0 0 1 4.02.674ZM1081.29 80.8a2.875 2.875 0 0 1 .67-4.022c2.92-2.082 6.85-2.7 10.58-1.49 3.72 1.211 6.54 4.023 7.68 7.424a2.87 2.87 0 0 1-1.82 3.648 2.884 2.884 0 0 1-3.65-1.822c-.54-1.605-1.95-3.101-3.99-3.766-2.05-.664-4.06-.28-5.44.702-1.3.924-3.1.622-4.03-.674ZM1110.14 12.612a2.873 2.873 0 0 1 2.38-3.305c3.55-.567 7.34.627 10.14 3.366 2.8 2.739 4.08 6.51 3.59 10.064a2.878 2.878 0 0 1-3.25 2.46 2.9 2.9 0 0 1-2.47-3.257c.23-1.677-.36-3.642-1.9-5.146s-3.51-2.055-5.18-1.788a2.886 2.886 0 0 1-3.31-2.394ZM1065.35 113.026a2.886 2.886 0 0 1 0 4.078c-2.55 2.532-6.33 3.785-10.2 3.201-3.87-.584-7.11-2.897-8.79-6.065a2.877 2.877 0 0 1 1.2-3.897 2.89 2.89 0 0 1 3.9 1.199c.79 1.495 2.42 2.741 4.55 3.062 2.13.321 4.05-.389 5.25-1.583a2.898 2.898 0 0 1 4.09.005Z"/>
            <path d="M1048.36 14.979a2.445 2.445 0 0 1 .67-3.39l11.87-7.96a2.443 2.443 0 0 1 3.39.668l2.35 3.5c.75 1.12.45 2.638-.67 3.39l-11.87 7.96a2.443 2.443 0 0 1-3.39-.668l-2.35-3.5ZM1075.18 101.745a2.443 2.443 0 0 1 1.86-2.907l13.97-3.049a2.435 2.435 0 0 1 2.9 1.866l.9 4.117a2.437 2.437 0 0 1-1.86 2.908l-13.96 3.048a2.445 2.445 0 0 1-2.91-1.866l-.9-4.117ZM1089.25 62.57c-1.01.899-2.55.81-3.45-.196l-9.51-10.665a2.447 2.447 0 0 1 .19-3.45l3.15-2.804c1-.899 2.55-.81 3.45.196l9.51 10.665c.9 1.007.81 2.551-.2 3.45l-3.14 2.805ZM1022.83 99.779a2.443 2.443 0 0 1 2.82 1.994l2.42 14.086a2.446 2.446 0 0 1-2 2.821l-4.15.712a2.442 2.442 0 0 1-2.82-1.994l-2.42-14.085a2.445 2.445 0 0 1 2-2.821l4.15-.713ZM1158.52 22.996l-14.12-12.658a.681.681 0 0 0-1 .092c-2.86 3.813-2.08 9.527 1.9 13.103 3.99 3.577 9.76 3.728 13.24.47a.684.684 0 0 0-.02-1.007ZM1231.61 109.398l14.12 12.658a.68.68 0 0 0 1-.092c2.86-3.812 2.08-9.527-1.9-13.103-3.99-3.576-9.76-3.728-13.24-.47a.684.684 0 0 0 .02 1.007ZM1247.54 47.556l-14.68-11.999c-.31-.251-.78-.195-1 .138-2.68 3.94-1.65 9.612 2.5 13.002 4.15 3.39 9.92 3.278 13.24-.136a.683.683 0 0 0-.06-1.005ZM1152.3 89.299l13.35-13.461a.683.683 0 0 0-.04-1.007c-3.66-3.048-9.41-2.56-13.18 1.242-3.77 3.803-4.22 9.552-1.14 13.192.26.306.73.316 1.01.034ZM1149.46 58.662c-2.79.295-5.52-3.992-6.12-9.577-.59-5.584 1.19-10.351 3.97-10.647 2.78-.296 5.52 3.992 6.11 9.576.6 5.585-1.18 10.352-3.96 10.648ZM1242.29 68.29c2.78-.295 5.52 3.992 6.11 9.577.59 5.585-1.18 10.352-3.97 10.647-2.78.296-5.52-3.992-6.11-9.576-.59-5.585 1.18-10.352 3.97-10.647ZM1211.93 15.453c1.81 1.302.62 6.053-2.66 10.613-3.28 4.56-7.4 7.202-9.21 5.9-1.81-1.3-.62-6.052 2.65-10.612 3.28-4.56 7.41-7.202 9.22-5.9ZM1184.99 92.948c-2.22-.242-3.52-4.963-2.91-10.546.6-5.583 2.89-9.914 5.11-9.672 2.22.241 3.52 4.963 2.91 10.546-.61 5.583-2.89 9.913-5.11 9.672Z"/>
            <path fill-rule="evenodd" clip-rule="evenodd" d="M1186.16 45.313a2.875 2.875 0 0 1-.67 4.022c-2.92 2.082-6.85 2.7-10.58 1.49-3.72-1.211-6.54-4.023-7.68-7.424a2.878 2.878 0 0 1 1.82-3.648 2.9 2.9 0 0 1 3.66 1.822c.53 1.605 1.94 3.101 3.99 3.766 2.04.664 4.06.28 5.44-.702a2.882 2.882 0 0 1 4.02.674ZM1207.29 80.8a2.875 2.875 0 0 1 .67-4.022c2.92-2.082 6.85-2.7 10.58-1.49 3.72 1.211 6.54 4.023 7.68 7.424a2.87 2.87 0 0 1-1.82 3.648 2.884 2.884 0 0 1-3.65-1.822c-.54-1.605-1.95-3.101-3.99-3.766-2.05-.664-4.06-.28-5.44.702-1.3.924-3.1.622-4.03-.674ZM1236.14 12.612a2.873 2.873 0 0 1 2.38-3.305c3.55-.567 7.34.627 10.14 3.366 2.8 2.739 4.08 6.51 3.59 10.064a2.878 2.878 0 0 1-3.25 2.46 2.9 2.9 0 0 1-2.47-3.257c.23-1.677-.36-3.642-1.9-5.146s-3.51-2.055-5.18-1.788a2.886 2.886 0 0 1-3.31-2.394ZM1191.35 113.026a2.886 2.886 0 0 1 0 4.078c-2.55 2.532-6.33 3.785-10.2 3.201-3.87-.584-7.11-2.897-8.79-6.065a2.877 2.877 0 0 1 1.2-3.897 2.89 2.89 0 0 1 3.9 1.199c.79 1.495 2.42 2.741 4.55 3.062 2.13.321 4.05-.389 5.25-1.583a2.898 2.898 0 0 1 4.09.005Z"/>
            <path d="M1174.36 14.979a2.445 2.445 0 0 1 .67-3.39l11.87-7.96a2.443 2.443 0 0 1 3.39.668l2.35 3.5c.75 1.12.45 2.638-.67 3.39l-11.87 7.96a2.443 2.443 0 0 1-3.39-.668l-2.35-3.5ZM1201.18 101.745a2.443 2.443 0 0 1 1.86-2.907l13.97-3.049a2.435 2.435 0 0 1 2.9 1.866l.9 4.117a2.437 2.437 0 0 1-1.86 2.908l-13.96 3.048a2.445 2.445 0 0 1-2.91-1.866l-.9-4.117ZM1215.25 62.57c-1.01.899-2.55.81-3.45-.196l-9.51-10.665a2.447 2.447 0 0 1 .19-3.45l3.15-2.804c1-.899 2.55-.81 3.45.196l9.51 10.665c.9 1.007.81 2.551-.2 3.45l-3.14 2.805ZM1148.83 99.779a2.443 2.443 0 0 1 2.82 1.994l2.42 14.086a2.446 2.446 0 0 1-2 2.821l-4.15.712a2.442 2.442 0 0 1-2.82-1.994l-2.42-14.085a2.445 2.445 0 0 1 2-2.821l4.15-.713ZM1284.52 22.996l-14.12-12.658a.681.681 0 0 0-1 .092c-2.86 3.813-2.08 9.527 1.9 13.103 3.99 3.577 9.76 3.728 13.24.47a.684.684 0 0 0-.02-1.007ZM1357.61 109.398l14.12 12.658a.68.68 0 0 0 1-.092c2.86-3.812 2.08-9.527-1.9-13.103-3.99-3.576-9.76-3.728-13.24-.47a.684.684 0 0 0 .02 1.007ZM1373.54 47.556l-14.68-11.999c-.31-.251-.78-.195-1 .138-2.68 3.94-1.65 9.612 2.5 13.002 4.15 3.39 9.92 3.278 13.24-.136a.683.683 0 0 0-.06-1.005ZM1278.3 89.299l13.35-13.461a.683.683 0 0 0-.04-1.007c-3.66-3.048-9.41-2.56-13.18 1.242-3.77 3.803-4.22 9.552-1.14 13.192.26.306.73.316 1.01.034ZM1275.46 58.662c-2.79.295-5.52-3.992-6.12-9.577-.59-5.584 1.19-10.351 3.97-10.647 2.78-.296 5.52 3.992 6.11 9.576.6 5.585-1.18 10.352-3.96 10.648ZM1368.29 68.29c2.78-.295 5.52 3.992 6.11 9.577.59 5.585-1.18 10.352-3.97 10.647-2.78.296-5.52-3.992-6.11-9.576-.59-5.585 1.18-10.352 3.97-10.647ZM1337.93 15.453c1.81 1.302.62 6.053-2.66 10.613-3.28 4.56-7.4 7.202-9.21 5.9-1.81-1.3-.62-6.052 2.65-10.612 3.28-4.56 7.41-7.202 9.22-5.9ZM1310.99 92.948c-2.22-.242-3.52-4.963-2.91-10.546.6-5.583 2.89-9.914 5.11-9.672 2.22.241 3.52 4.963 2.91 10.546-.61 5.583-2.89 9.913-5.11 9.672Z"/>
            <path fill-rule="evenodd" clip-rule="evenodd" d="M1312.16 45.313a2.875 2.875 0 0 1-.67 4.022c-2.92 2.082-6.85 2.7-10.58 1.49-3.72-1.211-6.54-4.023-7.68-7.424a2.878 2.878 0 0 1 1.82-3.648 2.9 2.9 0 0 1 3.66 1.822c.53 1.605 1.94 3.101 3.99 3.766 2.04.664 4.06.28 5.44-.702a2.882 2.882 0 0 1 4.02.674ZM1333.29 80.8a2.875 2.875 0 0 1 .67-4.022c2.92-2.082 6.85-2.7 10.58-1.49 3.72 1.211 6.54 4.023 7.68 7.424a2.87 2.87 0 0 1-1.82 3.648 2.884 2.884 0 0 1-3.65-1.822c-.54-1.605-1.95-3.101-3.99-3.766-2.05-.664-4.06-.28-5.44.702-1.3.924-3.1.622-4.03-.674ZM1362.14 12.612a2.873 2.873 0 0 1 2.38-3.305c3.55-.567 7.34.627 10.14 3.366 2.8 2.739 4.08 6.51 3.59 10.064a2.878 2.878 0 0 1-3.25 2.46 2.9 2.9 0 0 1-2.47-3.257c.23-1.677-.36-3.642-1.9-5.146s-3.51-2.055-5.18-1.788a2.886 2.886 0 0 1-3.31-2.394ZM1317.35 113.026a2.886 2.886 0 0 1 0 4.078c-2.55 2.532-6.33 3.785-10.2 3.201-3.87-.584-7.11-2.897-8.79-6.065a2.877 2.877 0 0 1 1.2-3.897 2.89 2.89 0 0 1 3.9 1.199c.79 1.495 2.42 2.741 4.55 3.062 2.13.321 4.05-.389 5.25-1.583a2.898 2.898 0 0 1 4.09.005Z"/>
            <path d="M1300.36 14.979a2.445 2.445 0 0 1 .67-3.39l11.87-7.96a2.443 2.443 0 0 1 3.39.668l2.35 3.5c.75 1.12.45 2.638-.67 3.39l-11.87 7.96a2.443 2.443 0 0 1-3.39-.668l-2.35-3.5ZM1327.18 101.745a2.443 2.443 0 0 1 1.86-2.907l13.97-3.049a2.435 2.435 0 0 1 2.9 1.866l.9 4.117a2.437 2.437 0 0 1-1.86 2.908l-13.96 3.048a2.445 2.445 0 0 1-2.91-1.866l-.9-4.117ZM1341.25 62.57c-1.01.899-2.55.81-3.45-.196l-9.51-10.665a2.447 2.447 0 0 1 .19-3.45l3.15-2.804c1-.899 2.55-.81 3.45.196l9.51 10.665c.9 1.007.81 2.551-.2 3.45l-3.14 2.805ZM1274.83 99.779a2.443 2.443 0 0 1 2.82 1.994l2.42 14.086a2.446 2.446 0 0 1-2 2.821l-4.15.712a2.442 2.442 0 0 1-2.82-1.994l-2.42-14.085a2.445 2.445 0 0 1 2-2.821l4.15-.713ZM1410.52 22.996l-14.12-12.658a.681.681 0 0 0-1 .092c-2.86 3.813-2.08 9.527 1.9 13.103 3.99 3.577 9.76 3.728 13.24.47a.684.684 0 0 0-.02-1.007ZM1404.3 89.299l13.35-13.461a.683.683 0 0 0-.04-1.007c-3.66-3.048-9.41-2.56-13.18 1.242-3.77 3.803-4.22 9.552-1.14 13.192.26.306.73.316 1.01.034ZM1401.46 58.662c-2.79.295-5.52-3.992-6.12-9.577-.59-5.584 1.19-10.351 3.97-10.647 2.78-.296 5.52 3.992 6.11 9.576.6 5.585-1.18 10.352-3.96 10.648ZM1436.99 92.948c-2.22-.242-3.52-4.963-2.91-10.546.6-5.583 2.89-9.914 5.11-9.672 2.22.241 3.52 4.963 2.91 10.546-.61 5.583-2.89 9.913-5.11 9.672Z"/>
            <path fill-rule="evenodd" clip-rule="evenodd" d="M1438.16 45.313a2.875 2.875 0 0 1-.67 4.022c-2.92 2.082-6.85 2.7-10.58 1.49-3.72-1.211-6.54-4.023-7.68-7.424a2.878 2.878 0 0 1 1.82-3.648 2.9 2.9 0 0 1 3.66 1.822c.53 1.605 1.94 3.101 3.99 3.766 2.04.664 4.06.28 5.44-.702a2.882 2.882 0 0 1 4.02.674ZM1443.35 113.026a2.886 2.886 0 0 1 0 4.078c-2.55 2.532-6.33 3.785-10.2 3.201-3.87-.584-7.11-2.897-8.79-6.065a2.877 2.877 0 0 1 1.2-3.897 2.89 2.89 0 0 1 3.9 1.199c.79 1.495 2.42 2.741 4.55 3.062 2.13.321 4.05-.389 5.25-1.583a2.898 2.898 0 0 1 4.09.005Z"/>
            <path d="M1426.36 14.979a2.445 2.445 0 0 1 .67-3.39l11.87-7.96a2.443 2.443 0 0 1 3.39.668l2.35 3.5c.75 1.12.45 2.638-.67 3.39l-11.87 7.96a2.443 2.443 0 0 1-3.39-.668l-2.35-3.5ZM1400.83 99.779a2.443 2.443 0 0 1 2.82 1.994l2.42 14.086a2.446 2.446 0 0 1-2 2.821l-4.15.712a2.442 2.442 0 0 1-2.82-1.994l-2.42-14.085a2.445 2.445 0 0 1 2-2.821l4.15-.713Z"/>
        </g>
    </symbol>
    <symbol id="inst" viewBox="0 0 24 24" fill="none"><path fill-rule="evenodd" clip-rule="evenodd" d="M15.75 2h-7.5A6.25 6.25 0 0 0 2 8.25v7.5A6.25 6.25 0 0 0 8.25 22h7.5A6.25 6.25 0 0 0 22 15.75v-7.5A6.25 6.25 0 0 0 15.75 2Zm4.375 13.75a4.38 4.38 0 0 1-4.375 4.375h-7.5a4.38 4.38 0 0 1-4.375-4.375v-7.5A4.38 4.38 0 0 1 8.25 3.875h7.5a4.38 4.38 0 0 1 4.375 4.375v7.5ZM12 7.2a4.8 4.8 0 1 0 0 9.6 4.8 4.8 0 0 0 0-9.6Zm0 7.8c-1.653 0-3-1.346-3-3 0-1.655 1.347-3 3-3 1.654 0 3 1.345 3 3 0 1.654-1.346 3-3 3Zm6-8.4a.6.6 0 1 1-1.2 0 .6.6 0 0 1 1.2 0Z" fill="url(#a)"/><defs><linearGradient id="a" x1="4.929" y1="19.071" x2="19.071" y2="4.929" gradientUnits="userSpaceOnUse"><stop stop-color="#FFC107"/><stop offset=".507" stop-color="#F44336"/><stop offset=".99" stop-color="#9C27B0"/></linearGradient></defs></symbol>
    <symbol id="vk" viewBox="0 0 24 24" fill="none"><path d="M11.786 17.363h1.195s.361-.04.545-.238c.17-.183.164-.525.164-.525s-.024-1.604.721-1.84c.734-.233 1.677 1.55 2.675 2.236.755.519 1.33.405 1.33.405l2.67-.038s1.398-.086.736-1.185c-.054-.09-.386-.812-1.987-2.297-1.675-1.555-1.45-1.303.568-3.992 1.229-1.637 1.72-2.638 1.566-3.065-.146-.408-1.05-.3-1.05-.3l-3.005.017s-.223-.03-.389.07c-.161.097-.265.322-.265.322S16.784 8.2 16.15 9.278c-1.339 2.274-1.875 2.394-2.094 2.252-.509-.328-.381-1.322-.381-2.027 0-2.204.333-3.123-.652-3.36-.327-.08-.567-.132-1.404-.14-1.072-.012-1.98.003-2.495.255-.342.167-.606.54-.445.562.199.026.65.121.888.446.309.42.297 1.362.297 1.362s.178 2.594-.413 2.916c-.407.221-.963-.23-2.157-2.294C6.682 8.194 6.22 7.025 6.22 7.025s-.088-.217-.247-.334c-.193-.14-.463-.186-.463-.186l-2.857.018s-.43.012-.587.198c-.14.167-.011.51-.011.51s2.238 5.233 4.77 7.872c2.324 2.42 4.962 2.26 4.962 2.26Z" fill="#1E88E5"/></symbol>
    <symbol id="facebook" viewBox="0 0 24 24" fill="none"><path fill-rule="evenodd" clip-rule="evenodd" d="M4.5 2h15C20.879 2 22 3.121 22 4.5v15c0 1.379-1.121 2.5-2.5 2.5h-3.75v-6.875h1.875L18.875 12H15.75V9.5c0-.634.473-.63 1.085-.626l.165.001h1.25V5.75h-2.5A3.75 3.75 0 0 0 12 9.5V12H9.5v3.125H12V22H4.5A2.503 2.503 0 0 1 2 19.5v-15C2 3.121 3.121 2 4.5 2Z" fill="#1976D2"/></symbol>
    <symbol id="odnkl" viewBox="0 0 24 24" fill="none"><path d="M11.792 5.025a2.14 2.14 0 0 1 2.137 2.137 2.14 2.14 0 0 1-2.137 2.136 2.14 2.14 0 0 1-2.137-2.136 2.14 2.14 0 0 1 2.137-2.137Zm0 7.297a5.166 5.166 0 0 0 5.162-5.16A5.167 5.167 0 0 0 11.792 2 5.168 5.168 0 0 0 6.63 7.162a5.166 5.166 0 0 0 5.162 5.16Zm2.088 4.21a9.663 9.663 0 0 0 2.997-1.24 1.512 1.512 0 0 0-1.61-2.561 6.555 6.555 0 0 1-6.95 0 1.51 1.51 0 0 0-2.085.475 1.512 1.512 0 0 0 .474 2.085c.922.58 1.935 1 2.997 1.241l-2.886 2.886a1.512 1.512 0 0 0 2.14 2.139l2.834-2.836 2.837 2.836a1.509 1.509 0 0 0 2.137 0 1.507 1.507 0 0 0 0-2.138l-2.885-2.887Z" fill="#EE8208"/></symbol>
    <symbol id="phone" viewBox="0 0 24 24" fill="none"><path fill-rule="evenodd" clip-rule="evenodd" d="M.53 5.628C.3 3.782 1.88 2.5 3.577 2.5h3.591a1.5 1.5 0 0 1 1.476 1.232l.606 3.335a3.5 3.5 0 0 1-.71 2.812l-.724.904a.467.467 0 0 0-.04.537c.469.766 1.314 2.06 2.08 2.826.767.767 2.06 1.612 2.826 2.081.163.1.376.088.538-.04l.904-.724a3.5 3.5 0 0 1 2.812-.71l3.335.606a1.5 1.5 0 0 1 1.232 1.476v3.347c0 1.821-1.451 3.442-3.385 3.131-3.313-.533-8.048-2.236-11.982-6.473C2.31 12.72.893 8.515.531 5.628ZM3.577 3.5c-1.265 0-2.19.91-2.053 2.003.338 2.692 1.671 6.7 5.345 10.657 3.75 4.038 8.263 5.66 11.408 6.166 1.194.192 2.226-.797 2.226-2.144v-3.347a.5.5 0 0 0-.41-.492l-3.336-.607a2.5 2.5 0 0 0-2.009.508l-.904.723c-.478.383-1.15.441-1.684.113-.764-.468-2.151-1.367-3.01-2.226-.86-.86-1.76-2.248-2.227-3.01a1.467 1.467 0 0 1 .113-1.685l.723-.905a2.5 2.5 0 0 0 .507-2.009L7.66 3.911a.5.5 0 0 0-.492-.411H3.576Z" fill="currentColor"/></symbol>
    <symbol id="full-star-orange" viewBox="0 0 14 13" fill="none">
        <path d="M6.103.817a1 1 0 0 1 1.794 0l1.221 2.475a1 1 0 0 0 .753.548l2.732.397a1 1 0 0 1 .555 1.705L11.18 7.87a1 1 0 0 0-.288.885l.467 2.721a1 1 0 0 1-1.451 1.054l-2.444-1.284a1 1 0 0 0-.93 0L4.09 12.529a1 1 0 0 1-1.45-1.054l.466-2.72a1 1 0 0 0-.288-.886L.842 5.942a1 1 0 0 1 .555-1.705l2.732-.397a1 1 0 0 0 .753-.548L6.103.817Z" fill="#F63"/>
    </symbol>
    <symbol id="full-star-grey" viewBox="0 0 14 13" fill="none">
        <path d="M6.103.817a1 1 0 0 1 1.794 0l1.221 2.475a1 1 0 0 0 .753.548l2.732.397a1 1 0 0 1 .555 1.705L11.18 7.87a1 1 0 0 0-.288.885l.467 2.721a1 1 0 0 1-1.451 1.054l-2.444-1.284a1 1 0 0 0-.93 0L4.09 12.529a1 1 0 0 1-1.45-1.054l.466-2.72a1 1 0 0 0-.288-.886L.842 5.942a1 1 0 0 1 .555-1.705l2.732-.397a1 1 0 0 0 .753-.548L6.103.817Z" fill="#BFBFBF"/>
    </symbol>
    <symbol id="hal-star" viewBox="0 0 7 13" fill="none">
        <path d="M7 .26v10.87a1 1 0 0 0-.465.115L4.09 12.529a1 1 0 0 1-1.45-1.054l.466-2.72a1 1 0 0 0-.288-.886L.843 5.942a1 1 0 0 1 .554-1.705l2.732-.397a1 1 0 0 0 .753-.548L6.103.817A.988.988 0 0 1 7 .26Z" fill="#F63"/>
    </symbol>
    <symbol id="heart" viewBox="0 0 22 20" fill="none">
        <path fill-rule="evenodd" clip-rule="evenodd" d="M11.705 2.256a6 6 0 1 1 8.487 8.488l-8.84 8.84a.5.5 0 0 1-.707 0l-8.84-8.84a6.001 6.001 0 1 1 8.487-8.488l.706.707.707-.707Zm4.243-.758a5 5 0 0 0-3.536 1.465l-1.06 1.06a.5.5 0 0 1-.707 0l-1.06-1.06a5.001 5.001 0 0 0-7.073 7.073l8.486 8.487 8.487-8.487a5 5 0 0 0-3.537-8.538Z" fill="#414141"/>
    </symbol>
</svg>