<svg xmlns="http://www.w3.org/2000/svg">
    <symbol id="logo-full" viewBox="0 0 152 32" fill="none">
        <path d="M35.669 16.819H4.286c-.657 0-1.194.557-1.134 1.215C3.842 25.85 11.112 32 19.978 32s16.136-6.148 16.825-13.966c.058-.658-.477-1.215-1.134-1.215Z" fill="#F63"/>
        <path fill-rule="evenodd" clip-rule="evenodd" d="M.225 3.331C1.79 1.28 4.606 0 7.711 0c3.104 0 5.922 1.279 7.486 3.331a1.1 1.1 0 0 1-.211 1.544 1.106 1.106 0 0 1-1.548-.21c-1.072-1.408-3.181-2.461-5.727-2.461-2.546 0-4.655 1.053-5.727 2.46a1.106 1.106 0 0 1-1.548.211 1.1 1.1 0 0 1-.21-1.544ZM24.767 3.331C26.331 1.28 29.148 0 32.253 0c3.102 0 5.92 1.279 7.485 3.33a1.1 1.1 0 0 1-.21 1.545 1.106 1.106 0 0 1-1.547-.21c-1.075-1.408-3.186-2.461-5.728-2.461-2.546 0-4.655 1.053-5.727 2.46a1.106 1.106 0 0 1-1.548.211 1.1 1.1 0 0 1-.21-1.544Z" fill="#414141"/>
        <path d="M57.953 18.218c-.206.152-.45.27-.729.37-.277.098-.529.144-.76.144-.748 0-1.39-.257-1.913-.764a2.526 2.526 0 0 1-.781-1.875c0-.744.258-1.37.78-1.883.524-.52 1.166-.777 1.913-.777.232 0 .49.053.775.152.284.099.53.23.748.395.185.131.397.112.496-.027l1.006-1.467c.086-.125.046-.323-.113-.435a5.015 5.015 0 0 0-1.41-.69c-.549-.185-1.052-.277-1.502-.277a5.13 5.13 0 0 0-1.998.395 4.971 4.971 0 0 0-1.622 1.06c-.45.44-.807.973-1.072 1.592a4.927 4.927 0 0 0-.397 1.962c0 .69.132 1.342.397 1.961a4.903 4.903 0 0 0 1.072 1.593c.457.44.993.796 1.622 1.06a5.247 5.247 0 0 0 1.998.388c.464 0 .967-.086 1.51-.263.549-.178.999-.402 1.356-.672.166-.112.238-.31.159-.434l-.986-1.488c-.106-.151-.344-.158-.55-.02ZM60.725 20.542c0 .217.133.342.351.342h6.354c.218 0 .357-.131.357-.342V19.12c0-.27-.185-.447-.483-.447h-4.203v-1.64h3.19c.239 0 .384-.13.384-.348v-1.25c0-.231-.145-.363-.384-.363h-3.19V13.48h4.203c.232 0 .35-.119.35-.35v-1.513c0-.217-.132-.349-.35-.349h-6.228c-.218 0-.35.132-.35.349v8.925ZM75.173 15.79c.55-.362.894-1.04.894-1.744 0-.876-.285-1.56-.848-2.047-.562-.488-1.35-.731-2.369-.731h-3.474c-.173 0-.259.085-.259.25v9.116c0 .165.086.25.258.25h3.753c1.066 0 1.893-.256 2.482-.763.596-.507.893-1.218.893-2.133 0-.48-.119-.921-.357-1.323a2.116 2.116 0 0 0-.973-.875Zm-2.35-2.383c.523 0 .848.31.848.81s-.325.816-.847.816H71.52v-1.626h1.304Zm-1.303 5.338v-1.928h1.575c.615 0 1.006.362 1.006.947 0 .6-.39.981-1.006.981H71.52ZM77.695 20.542c0 .217.132.342.35.342H84.4c.218 0 .357-.131.357-.342V19.12c0-.27-.185-.447-.483-.447H80.07v-1.64h3.19c.239 0 .384-.13.384-.348v-1.25c0-.231-.145-.363-.384-.363h-3.19V13.48h4.203c.232 0 .35-.119.35-.35v-1.513c0-.217-.132-.349-.35-.349h-6.228c-.218 0-.35.132-.35.349v8.925ZM88.145 11.268H86.43c-.206 0-.344.151-.344.355v8.919c0 .217.125.349.344.349h1.694c.231 0 .364-.132.364-.349v-2.62h1.158c1.032 0 1.866-.302 2.508-.901.642-.606.967-1.409.967-2.41 0-1.013-.325-1.823-.967-2.428-.642-.612-1.475-.915-2.508-.915h-1.502Zm.344 4.489v-2.324h1.059c.337 0 .622.112.84.336.225.217.338.494.338.83 0 .335-.113.612-.338.829a1.15 1.15 0 0 1-.84.329h-1.06ZM100.388 11.268H97.43c-1.032 0-1.873.303-2.515.915-.642.605-.96 1.415-.96 2.422 0 1.204.55 2.198 1.496 2.758l-1.694 3.126c-.106.191.013.402.225.402h1.979c.192 0 .278-.066.404-.296l1.416-2.712h.986v2.659c0 .217.132.349.364.349h1.694c.219 0 .344-.132.344-.349v-8.925c0-.204-.139-.349-.344-.349h-.437Zm-2.859 4.555c-.337 0-.622-.119-.847-.356a1.265 1.265 0 0 1-.33-.875c0-.342.112-.619.33-.836.219-.217.503-.33.847-.33h1.238v2.397h-1.238ZM109.038 11.268c-.165 0-.251.085-.251.257v3.324h-3.62v-3.324c0-.171-.086-.257-.252-.257h-1.866c-.172 0-.258.085-.258.257v9.11c0 .17.086.256.258.256h1.866c.166 0 .252-.086.252-.257v-3.62h3.62v3.62c0 .171.086.257.251.257h1.873c.166 0 .252-.086.252-.257v-9.11c0-.17-.086-.256-.252-.256h-1.873ZM112.341 16.1c0 .684.132 1.335.39 1.954a5.034 5.034 0 0 0 1.066 1.586 5.112 5.112 0 0 0 3.58 1.448 5.01 5.01 0 0 0 2.542-.658 4.847 4.847 0 0 0 1.82-1.81 4.942 4.942 0 0 0 .668-2.52c0-.692-.132-1.344-.397-1.962a4.746 4.746 0 0 0-1.065-1.6 4.911 4.911 0 0 0-1.602-1.053 4.948 4.948 0 0 0-1.966-.395c-.695 0-1.35.132-1.972.395a5.003 5.003 0 0 0-1.608 1.053 5.04 5.04 0 0 0-1.456 3.56Zm2.396 0c0-.738.258-1.357.767-1.864a2.566 2.566 0 0 1 1.873-.763 2.55 2.55 0 0 1 1.867.763c.509.507.767 1.126.767 1.863 0 .73-.258 1.343-.767 1.85-.51.506-1.132.757-1.867.757-.741 0-1.37-.25-1.879-.757-.51-.507-.761-1.12-.761-1.85ZM129.303 11.261c-.185 0-.337.165-.337.356v2.712c0 .493-.159.888-.47 1.184-.311.296-.722.448-1.244.448-1.039 0-1.655-.612-1.655-1.646v-2.698c0-.204-.159-.356-.371-.356h-1.7c-.179 0-.325.165-.325.356v2.705c0 1.198.358 2.159 1.072 2.883.715.717 1.642 1.08 2.78 1.08.741 0 1.436-.297 1.913-.751v3.008c0 .19.145.342.337.342h1.714a.347.347 0 0 0 .345-.349v-8.918c0-.204-.139-.356-.325-.356h-1.734ZM138.714 15.803l3.078-4.08c.159-.212.092-.435-.152-.435h-2.178c-.231 0-.357.026-.509.23l-2.509 3.35h-1.065v-3.343c0-.165-.086-.25-.252-.25h-1.886c-.172 0-.258.085-.258.25v9.103c0 .17.086.256.258.256h1.886c.166 0 .252-.085.252-.256v-3.509h1.363l2.436 3.634a.442.442 0 0 0 .344.151h2.197c.232 0 .291-.23.159-.421l-3.164-4.68ZM148.192 11.584a.488.488 0 0 0-.437-.323h-1.397a.498.498 0 0 0-.45.323l-3.534 8.919c-.086.23.013.388.258.388h1.873a.442.442 0 0 0 .43-.316l.431-1.257h3.355l.437 1.263c.073.185.238.316.423.316h1.88c.258 0 .344-.17.258-.388l-3.527-8.925Zm-1.152 2.83.999 2.916h-1.998l.999-2.916Z" fill="#414141"/>
    </symbol>
    <symbol id="logo-round" viewBox="0 0 62 44" fill="none">
        <path d="M45.492 14.262H17.975c-.577 0-1.046.47-.996 1.024.603 6.584 6.979 11.766 14.754 11.766 7.775 0 14.15-5.182 14.753-11.766.052-.553-.417-1.024-.994-1.024Z" fill="#F63"/>
        <path d="M26.765 4.408c-.307 0-.612-.132-.811-.386C24.949 2.75 23.039 1.96 20.97 1.96c-2.068 0-3.978.79-4.983 2.062-.34.431-.981.513-1.428.186a.954.954 0 0 1-.193-1.373C15.77 1.06 18.238 0 20.97 0c2.732 0 5.2 1.06 6.606 2.835a.956.956 0 0 1-.194 1.373 1.04 1.04 0 0 1-.618.2ZM48.288 4.408c-.307 0-.613-.132-.812-.386-1.005-1.271-2.915-2.062-4.983-2.062-2.068 0-3.977.79-4.983 2.062-.34.431-.98.513-1.427.186a.954.954 0 0 1-.194-1.373C37.292 1.06 39.761 0 42.493 0c2.733 0 5.2 1.06 6.606 2.835a.956.956 0 0 1-.193 1.373 1.04 1.04 0 0 1-.618.2ZM3.352 30.003l-.4 1.019c-.036.084-.164.118-.283.077a2.865 2.865 0 0 1-.847-.428 3.028 3.028 0 0 1-.694-.648 3.133 3.133 0 0 1-.54-1.122 3.049 3.049 0 0 1-.054-1.178c.061-.38.203-.746.422-1.097.222-.351.507-.65.864-.897a3.22 3.22 0 0 1 1.156-.507 3.218 3.218 0 0 1 1.217-.04c.4.064.78.202 1.145.418.369.215.683.498.942.843.166.222.305.503.413.838.112.335.168.648.166.941.002.118-.086.208-.183.211l-1.128.03c-.108 0-.197-.096-.197-.234a1.593 1.593 0 0 0-.072-.51 1.42 1.42 0 0 0-.209-.435 1.656 1.656 0 0 0-1.107-.664 1.669 1.669 0 0 0-1.259.288c-.38.264-.607.614-.677 1.056-.067.439.037.847.314 1.216.086.114.203.222.356.322.154.102.305.179.46.227.15.047.234.167.195.274ZM7.855 28.836c.093-.098.212-.102.312-.012l2.897 2.56c.102.089.106.203.013.3l-.652.68c-.099.104-.205.107-.313.013l-1.954-1.728-.685.716 1.483 1.312c.112.099.123.217.023.32l-.538.563c-.093.098-.218.096-.328 0L6.63 32.248l-.704.737 1.955 1.727c.137.122.149.28.031.4l-.61.638c-.091.095-.212.097-.313.008l-2.956-2.61c-.102-.09-.11-.2-.017-.299l3.839-4.013ZM14.12 37.257a1.514 1.514 0 0 1-.253.8c-.307.475-.705.747-1.195.818-.486.074-1.016-.059-1.588-.402l-2.012-1.207c-.093-.055-.11-.127-.054-.213l3.064-4.725c.056-.086.13-.102.222-.046l1.863 1.117c.545.327.886.706 1.024 1.14.137.433.06.878-.235 1.333-.236.365-.65.605-1.065.618.16.229.237.483.23.767Zm-2.334.099c.33.198.668.125.87-.184.197-.305.11-.618-.222-.815l-.845-.506-.648.998.845.507Zm.951-3.274-.547.843.698.42c.281.167.56.108.728-.151.168-.26.099-.525-.182-.693l-.697-.419ZM16.965 35.187c.052-.124.16-.169.288-.118l3.65 1.408c.129.05.175.154.123.278l-.357.857c-.054.13-.153.17-.289.118l-2.464-.95-.376.902 1.87.721c.14.054.194.161.14.292l-.296.709c-.052.123-.168.164-.307.11l-1.87-.72-.388.928 2.464.95c.175.069.242.21.177.364l-.337.805c-.05.12-.162.163-.29.113l-3.725-1.437c-.128-.05-.176-.15-.124-.274l2.11-5.056ZM24.478 37.345c.636.134 1.11.424 1.424.873.312.446.403.97.264 1.575-.136.598-.447 1.035-.925 1.312-.479.274-1.033.346-1.672.212l-.714-.15-.358 1.562c-.03.129-.128.191-.272.16l-1.046-.22c-.134-.028-.193-.123-.165-.252l1.215-5.32a.212.212 0 0 1 .26-.167l.527.11.53.113.932.192Zm-.674 2.665a.751.751 0 0 0 .564-.086c.17-.1.275-.25.322-.45a.65.65 0 0 0-.095-.54.705.705 0 0 0-.473-.31l-.653-.137-.317 1.387.652.136ZM31.777 38.131c.13.007.213.1.205.224L31.67 43.8c-.007.132-.09.209-.229.2l-1.068-.057c-.147-.007-.225-.093-.218-.226l.093-1.621-.621-.032-.989 1.607c-.087.136-.143.173-.264.166l-1.249-.066c-.134-.007-.201-.14-.128-.252l1.178-1.851c-.577-.372-.89-.997-.847-1.733.035-.614.264-1.097.69-1.446.427-.352.968-.508 1.62-.474l1.867.098.273.018ZM30.32 40.84l.084-1.462-.78-.041a.747.747 0 0 0-.546.172.685.685 0 0 0-.238.499.751.751 0 0 0 .179.544.716.716 0 0 0 .521.245l.78.043ZM38.386 37.553c.104-.013.164.034.177.138l.688 5.527c.013.103-.035.16-.137.173l-1.175.136c-.104.013-.164-.034-.177-.138l-.273-2.196-2.271.262.273 2.196c.013.104-.035.16-.137.173l-1.171.135c-.108.012-.168-.034-.18-.138l-.69-5.527c-.012-.104.036-.161.144-.174l1.17-.134c.105-.013.164.034.178.138l.25 2.017 2.272-.261-.252-2.018c-.013-.103.036-.16.138-.173l1.173-.136ZM40.298 38.977c.034-.413.142-.79.32-1.13.183-.343.434-.65.756-.919.32-.272.687-.472 1.104-.605.417-.132.836-.18 1.258-.145.425.03.817.134 1.171.306.357.17.68.412.959.725.282.308.491.66.629 1.061.182.532.216 1.064.102 1.59a2.902 2.902 0 0 1-.731 1.398c-.373.402-.838.689-1.395.866a3.333 3.333 0 0 1-2.436-.157 3.179 3.179 0 0 1-.955-.718 3.058 3.058 0 0 1-.624-1.06c-.14-.4-.19-.803-.158-1.212Zm2.42 1.683c.408.197.834.222 1.279.08.44-.14.763-.404.97-.794.204-.392.238-.795.09-1.22a1.564 1.564 0 0 0-.831-.933 1.665 1.665 0 0 0-1.272-.088c-.44.14-.767.408-.971.8-.205.392-.237.8-.09 1.226.146.426.42.732.825.929ZM50.447 32.774c.1-.056.225-.018.29.09l2.83 4.718c.06.1.027.23-.079.288l-.938.519a.218.218 0 0 1-.294-.079l-.955-1.591a1.72 1.72 0 0 1-.808.977c-.623.346-1.245.435-1.863.272-.62-.166-1.12-.565-1.5-1.199l-.858-1.432c-.062-.1-.034-.233.065-.286l.93-.516c.116-.064.252-.032.315.075l.856 1.429c.328.546.858.683 1.428.368.287-.159.462-.363.538-.613.076-.251.037-.509-.12-.77l-.86-1.436a.207.207 0 0 1 .074-.29l.949-.524ZM59.731 32.6c.144.034.213.163.105.256l-1.035.89a.286.286 0 0 1-.227.07l-2.686-.67-.642.551 1.485 1.599c.072.078.069.152-.01.218l-.887.764c-.082.07-.159.067-.231-.012l-3.853-4.147c-.07-.075-.065-.149.015-.219l.888-.764c.078-.066.154-.063.225.013l1.414 1.523.503-.432-.236-2.541c-.015-.154.033-.217.143-.312l1.026-.88c.115-.099.242-.024.255.136l.277 3.105 3.471.852ZM64.345 26.672c.144.034.201.136.108.265l-.683.934c-.067.092-.195.13-.318.1l-.815-.227-1.22 1.667.497.655a.26.26 0 0 1 .008.324l-.681.93c-.09.122-.207.117-.296-.009l-3.35-4.89c-.073-.114-.07-.245-.003-.336l.508-.694c.067-.092.201-.135.326-.104l5.92 1.385Zm-3.715 1.704.726-.993-1.878-.528 1.152 1.521Z" fill="#414141"/>
    </symbol>
    <symbol id="logo-mini"  viewBox="0 0 49 40" fill="none">
        <path d="M5.365 21.157h38.32c.804 0 1.457.686 1.387 1.491-.84 9.59-9.718 17.136-20.545 17.136-10.828 0-19.706-7.546-20.546-17.136-.072-.805.58-1.49 1.384-1.49Z" fill="#F63"/>
        <path d="M31.444 6.808c.427 0 .852-.192 1.13-.563 1.4-1.85 4.059-3.002 6.939-3.002s5.54 1.15 6.939 3.002a1.413 1.413 0 0 0 1.988.272 1.431 1.431 0 0 0 .27-2C46.755 1.932 43.318.388 39.513.388c-3.805 0-7.243 1.544-9.2 4.13a1.433 1.433 0 0 0 .27 1.999c.26.198.56.291.86.291ZM1.474 6.808c.427 0 .853-.192 1.13-.563 1.4-1.85 4.06-3.002 6.94-3.002 2.879 0 5.538 1.15 6.938 3.002a1.413 1.413 0 0 0 1.989.272 1.431 1.431 0 0 0 .27-2C16.785 1.932 13.347.388 9.542.388c-3.805 0-7.242 1.544-9.2 4.13a1.433 1.433 0 0 0 .27 1.999c.26.198.56.291.86.291Z" fill="#414141"/>
    </symbol>
</svg>